<svg xmlns="http://www.w3.org/2000/svg" viewBox="0 0 56.13 56.13"><title>close icon popup</title><g id="Layer_2" data-name="Layer 2"><g id="Layer_1-2" data-name="Layer 1"><path d="M28.06,0A28.06,28.06,0,1,0,47.51,48.29a1.14,1.14,0,0,0-1.58-1.65,25.7,25.7,0,1,1,6.19-9.29,1.14,1.14,0,0,0,2.13.82A28.08,28.08,0,0,0,28.06,0Zm0,0"/><path d="M31.91,30.48a1.14,1.14,0,0,0-1.6,1.63l9,8.8a1.14,1.14,0,1,0,1.6-1.63Zm0,0"/><path d="M23.83,25.44a1.14,1.14,0,0,0,1.62-1.62l-8.61-8.61a1.14,1.14,0,0,0-1.62,1.62Zm0,0"/><path d="M40.91,15.22a1.14,1.14,0,0,0-1.62,0L15.22,39.29a1.14,1.14,0,0,0,1.62,1.62L40.91,16.83a1.14,1.14,0,0,0,0-1.62Zm0,0"/></g></g></svg>