<svg xmlns="http://www.w3.org/2000/svg" viewBox="0 0 96 96"><defs><style>.cls-1{fill:none;}</style></defs><title>login_1</title><g id="Layer_2" data-name="Layer 2"><g id="Layer_1-2" data-name="Layer 1"><path d="M65.05,23H36.62a6.15,6.15,0,0,0-6.14,6.14v6.14h3.77V29.18a2.38,2.38,0,0,1,2.38-2.38H65.05a2.38,2.38,0,0,1,2.39,2.38V66.82a2.39,2.39,0,0,1-2.39,2.39H36.62a2.38,2.38,0,0,1-2.38-2.39V60.67H30.48v6.14A6.15,6.15,0,0,0,36.62,73H65.05a6.16,6.16,0,0,0,6.15-6.14V29.18A6.16,6.16,0,0,0,65.05,23Z"/><path d="M49.58,56.55a1.88,1.88,0,0,0,1.33,3.21h0a1.85,1.85,0,0,0,1.32-.55L62,49.4A1.8,1.8,0,0,0,62.58,48,1.84,1.84,0,0,0,62,46.6l-9.81-9.81a1.85,1.85,0,0,0-1.32-.55h0a1.88,1.88,0,0,0-1.33,3.21l6.67,6.66H26.68a1.88,1.88,0,0,0,0,3.77H56.25Z"/><rect class="cls-1" width="96" height="96"/></g></g></svg>