<svg xmlns="http://www.w3.org/2000/svg" viewBox="0 0 55 72.61"><title>menu icon</title><g id="Layer_2" data-name="Layer 2"><g id="Layer_1-2" data-name="Layer 1"><path d="M52.55,5.19H41.13l.77,3.57a4.09,4.09,0,0,1,0,1.33h8.17V67.72H4.89V10.08h8.17a4.11,4.11,0,0,1,0-1.33l.77-3.56H2.44A2.44,2.44,0,0,0,0,7.64V70.17a2.44,2.44,0,0,0,2.44,2.44H52.55A2.45,2.45,0,0,0,55,70.17V7.64a2.45,2.45,0,0,0-2.45-2.45Zm0,0"/><path d="M44.35,22.87H27.65a2.44,2.44,0,1,0,0,4.89h16.7a2.44,2.44,0,1,0,0-4.89Zm0,0"/><path d="M44.35,37.86H27.65a2.45,2.45,0,1,0,0,4.89h16.7a2.45,2.45,0,0,0,0-4.89Zm0,0"/><path d="M9.07,23.44a2.45,2.45,0,0,0-.29,3.45l3.57,4.23a2.44,2.44,0,0,0,1.87.87h.18a2.44,2.44,0,0,0,1.9-1.15L22.7,20.43a2.44,2.44,0,0,0-4.16-2.57L13.9,25.38l-1.39-1.65a2.44,2.44,0,0,0-3.44-.29Zm0,0"/><path d="M14.92,36.64a3.67,3.67,0,1,0,3.67,3.67,3.67,3.67,0,0,0-3.67-3.67Zm0,0"/><path d="M44.35,52.53H27.65a2.44,2.44,0,1,0,0,4.89h16.7a2.44,2.44,0,1,0,0-4.89Zm0,0"/><path d="M14.92,51.31A3.67,3.67,0,1,0,18.59,55a3.67,3.67,0,0,0-3.67-3.67Zm0,0"/><path d="M17.13,11.3H37.87a1.68,1.68,0,0,0,1.64-2L37.79,1.32A1.68,1.68,0,0,0,36.15,0H18.85A1.68,1.68,0,0,0,17.2,1.32L15.49,9.27a1.69,1.69,0,0,0,.34,1.41,1.67,1.67,0,0,0,1.31.62Zm0,0"/></g></g></svg>