<svg xmlns="http://www.w3.org/2000/svg" viewBox="0 0 96 96"><defs><style>.cls-1{fill:none;}</style></defs><title>pitches list</title><g id="Layer_2" data-name="Layer 2"><g id="Layer_1-2" data-name="Layer 1"><rect class="cls-1" width="96" height="96"/><path d="M65.29,67.91H30.71A1.71,1.71,0,0,1,29,66.2v-25a1.71,1.71,0,0,1,1.71-1.71H65.29A1.71,1.71,0,0,1,67,41.17v25A1.71,1.71,0,0,1,65.29,67.91ZM32.41,64.5H63.59V42.88H32.41Z"/><path d="M62.45,37.19H33.55a1.71,1.71,0,1,1,0-3.41h28.9a1.71,1.71,0,1,1,0,3.41Z"/><path d="M59.6,31.5H36.4a1.71,1.71,0,0,1,0-3.41H59.6a1.71,1.71,0,1,1,0,3.41Z"/></g></g></svg>