<svg xmlns="http://www.w3.org/2000/svg" xmlns:xlink="http://www.w3.org/1999/xlink" viewBox="0 0 48 55.93"><defs><style>.cls-1{fill:none;}.cls-2{clip-path:url(#clip-path);}</style><clipPath id="clip-path" transform="translate(-0.08 -0.07)"><rect class="cls-1" x="0.08" y="0.07" width="48.02" height="55.98" transform="translate(-0.08 0.07) rotate(-0.16)"/></clipPath></defs><title>problem icon</title><g id="Layer_2" data-name="Layer 2"><g id="Layer_1-2" data-name="Layer 1"><g class="cls-2"><path d="M24.14,56A18,18,0,0,1,6.06,38v-.26H5.66A5.57,5.57,0,0,1,.09,32.22V29.68A5.57,5.57,0,0,1,5.63,24.1H6l0-8.19A10.33,10.33,0,0,1,9.89,7.82a6.39,6.39,0,0,1-.14-1.31,4.16,4.16,0,0,1,1.62-3.15l0,0L12,2.9l.07,0,.33-.19a12.11,12.11,0,0,1,2.92-1.33A25,25,0,0,1,21.8.14c9-.53,17,2.09,19.46,6.38h0A12.11,12.11,0,0,1,42,7.86c2,4.34.4,8.9.06,9.77l0,6.37h.43a5.57,5.57,0,0,1,5.58,5.54v2.54a5.57,5.57,0,0,1-5.54,5.57h-.43v.26A18,18,0,0,1,24.14,56ZM7.38,37.1V38a16.7,16.7,0,0,0,33.4-.09l0-5.62H39.6a.66.66,0,0,1-.47-.2.67.67,0,0,1-.19-.47c0-.08.06-7.71-.54-10.07a4.83,4.83,0,0,0-2.13-3,.67.67,0,0,1-.26-.92,7.49,7.49,0,0,0,.94-3c0-.23-.95-.79-2.2-1.14a12.56,12.56,0,0,0-2.57-.28h0l-13.78,0a11.77,11.77,0,0,1-5.12-1,6,6,0,0,1-.68-.38,5.49,5.49,0,0,0-1.49,2.86,6.84,6.84,0,0,0,1,3,.66.66,0,0,1,.08.52.66.66,0,0,1-.33.41,4.84,4.84,0,0,0-2.11,3C9.1,24,9.2,31.66,9.2,31.73a.66.66,0,0,1-.66.67H7.37Zm34.76-.76h.39a4.24,4.24,0,0,0,4.22-4.25V29.55a4.24,4.24,0,0,0-4.25-4.22h-.39ZM5.63,25.43a4.24,4.24,0,0,0-4.22,4.25v2.54a4.24,4.24,0,0,0,4.25,4.22h.39l0-11ZM40.26,31h.51l0-13.32a6.69,6.69,0,0,0-2.47-2.81,8.42,8.42,0,0,1-.83,2.91,6.36,6.36,0,0,1,2.24,3.49c.54,2.12.58,7.77.58,9.73Zm-32.9.09h.51c0-2,0-7.62.53-9.74a6.37,6.37,0,0,1,2.22-3.5,7.57,7.57,0,0,1-.85-3.14A6.52,6.52,0,0,1,11.56,11a6.23,6.23,0,0,1-1.24-1.81,9,9,0,0,0-3,6.71ZM32.28,11.83c.9,0,6.24.15,9,4,.09-.36.19-.77.26-1.23a15.84,15.84,0,0,0-7.77-4A41,41,0,0,0,24,10.52a55.06,55.06,0,0,1-7.32.16,10.49,10.49,0,0,1-4.78-1.37,4.8,4.8,0,0,0,2,1.71,10.53,10.53,0,0,0,4.51.86l13.78,0ZM29.28,9A25.18,25.18,0,0,1,34,9.32,17,17,0,0,1,41.66,13a11.31,11.31,0,0,0-.08-1.83C39.73,9.32,36.45,8,32.08,7.46a30.06,30.06,0,0,0-7.75.44A32.63,32.63,0,0,1,16,8.36C13.08,8,11.74,6.94,11.13,6a2.13,2.13,0,0,0-.06.5c0,.06,0,.13,0,.19.22.42,1.44,2.35,5.71,2.66a53.51,53.51,0,0,0,7.14-.16C25.7,9.08,27.51,9,29.28,9ZM30.16,6a15.6,15.6,0,0,1,2.1.12A20.94,20.94,0,0,1,41.06,9q-.12-.31-.26-.62a11.14,11.14,0,0,0-.68-1.22l0,0C37.9,3.37,30.24,1,21.87,1.46a23.65,23.65,0,0,0-6.14,1.13h0a10.85,10.85,0,0,0-2.61,1.2l-.34.2-.57.41L12,4.6c.08.52.64,2,4.19,2.44a31.66,31.66,0,0,0,8-.46,45.88,45.88,0,0,1,6-.57ZM18.57,44.43a7.62,7.62,0,0,1-4.49-1.49.66.66,0,0,1,.83-1A6.31,6.31,0,0,0,19.55,43a6.56,6.56,0,0,0,3.52-1.68,8.11,8.11,0,0,1,4.62-2.05A6.64,6.64,0,0,1,34.3,42l.29-.19a.66.66,0,1,1,.72,1.11l-1.59,1A.66.66,0,0,1,33,42.82l.19-.12a5.26,5.26,0,0,0-5.32-2.11,6.79,6.79,0,0,0-4,1.77,7.86,7.86,0,0,1-4.13,2,7.13,7.13,0,0,1-1.21.11ZM31.06,33.34a4.42,4.42,0,0,1-4-2.62.66.66,0,0,1,.28-.84l6.47-3.72a.66.66,0,0,1,.87.19,4.41,4.41,0,0,1-3.57,7ZM28.51,30.7a3.09,3.09,0,0,0,5.63-1.78,3.06,3.06,0,0,0-.29-1.29L31.51,29a.66.66,0,0,1,.2.48v.07a.66.66,0,0,1-1.32.1ZM17.66,33.38a4.41,4.41,0,0,1-3.61-7,.66.66,0,0,1,.87-.19l6.49,3.69a.66.66,0,0,1,.28.84,4.42,4.42,0,0,1-4,2.65Zm-2.83-5.7a3.09,3.09,0,0,0,5.36,3l-1.89-1.07A.66.66,0,0,1,17,29.56v-.07a.66.66,0,0,1,.2-.48ZM27.27,28.8a.66.66,0,0,1-.4-1.19L33,23a.66.66,0,1,1,.79,1.06l-6.11,4.56a.65.65,0,0,1-.39.13Zm-5.84,0a.65.65,0,0,1-.39-.13l-6.14-4.53a.66.66,0,1,1,.79-1.07l6.14,4.53a.66.66,0,0,1-.39,1.2Zm0,0" transform="translate(-0.08 -0.07)"/></g></g></g></svg>