<svg xmlns="http://www.w3.org/2000/svg" viewBox="0 0 96 96"><defs><style>.cls-1{fill:none;}.cls-2{stroke:#000;stroke-miterlimit:10;stroke-width:1.11px;}</style></defs><title>profile</title><g id="Layer_2" data-name="Layer 2"><g id="Layer_1-2" data-name="Layer 1"><rect class="cls-1" width="96" height="96"/><path class="cls-2" d="M34,53.25a20.35,20.35,0,1,0-.25-.27,1.14,1.14,0,0,0,.25.27Zm14,3.69a17.12,17.12,0,0,1-11.11-4.08c5-1.67,6.9-3.71,7.59-5.06a8.19,8.19,0,0,0,3.22.66H48a8.23,8.23,0,0,0,3.46-.77c.64,1.36,2.47,3.46,7.66,5.17A17,17,0,0,1,48,56.95ZM41.72,36.16v-.07c.27-5.89,4.61-6.35,5.94-6.35H48c1.32,0,5.67.46,5.94,6.35v.07c0,.06.56,5.5-2,8.36a5.23,5.23,0,0,1-4.1,1.71h-.07a5.24,5.24,0,0,1-4.1-1.71c-2.55-2.84-2-8.3-2-8.36ZM48,22.56A17.19,17.19,0,0,1,60.91,51.1c-7.3-2.12-7.58-4.7-7.58-4.73v.06h-.08l.41-.42c3.11-3.49,2.59-9.47,2.53-10.06-.31-6.24-4.59-8.45-8.17-8.45h-.36c-3.58,0-7.87,2.21-8.17,8.45-.06.58-.56,6.55,2.53,10.06.18.2.37.4.56.58-.24.65-1.43,2.73-7.5,4.51A17.18,17.18,0,0,1,48,22.56Zm0,0"/><path class="cls-2" d="M33.81,67.83H62.18a1.12,1.12,0,1,0,0-2.24H33.81a1.11,1.11,0,0,0-1.12,1.12,1.13,1.13,0,0,0,1.12,1.12Zm0,0"/><path class="cls-2" d="M58.32,74.56a1.11,1.11,0,0,0-1.12-1.12H38.8a1.12,1.12,0,1,0,0,2.24h18.4a1.12,1.12,0,0,0,1.11-1.12Zm0,0"/></g></g></svg>