<svg xmlns="http://www.w3.org/2000/svg" xmlns:xlink="http://www.w3.org/1999/xlink" viewBox="0 0 46.98 54.75"><defs><style>.cls-1{fill:none;}.cls-2{clip-path:url(#clip-path);}</style><clipPath id="clip-path"><rect class="cls-1" width="47" height="54.79"/></clipPath></defs><title>proof and ask</title><g id="Layer_2" data-name="Layer 2"><g id="Layer_1-2" data-name="Layer 1"><g class="cls-2"><path d="M23.47,54.75A17.66,17.66,0,0,1,5.83,37.11v-.26H5.44A5.45,5.45,0,0,1,0,31.41V28.91a5.45,5.45,0,0,1,5.44-5.44h.39v-8a10.11,10.11,0,0,1,3.83-7.9,6.35,6.35,0,0,1-.13-1.28,4.07,4.07,0,0,1,1.6-3.08l0,0,.61-.43.07,0,.32-.19A11.79,11.79,0,0,1,15,1.21,24.53,24.53,0,0,1,21.34.06c8.78-.49,16.61,2.09,19,6.29a11.56,11.56,0,0,1,.72,1.32c2,4.25.37,8.71,0,9.56v6.24h.42A5.45,5.45,0,0,1,47,28.91v2.49a5.45,5.45,0,0,1-5.44,5.44h-.42v.26A17.66,17.66,0,0,1,23.47,54.75ZM7.12,36.2v.91a16.35,16.35,0,0,0,32.7,0v-5.5H38.67A.65.65,0,0,1,38,31c0-.07.08-7.54-.5-9.86a4.73,4.73,0,0,0-2.08-3,.66.66,0,0,1-.32-.4.65.65,0,0,1,.07-.5,7.3,7.3,0,0,0,.93-3c0-.23-1-.79-2.21-1.14a12.14,12.14,0,0,0-2.45-.27H18a11.52,11.52,0,0,1-5-1,6,6,0,0,1-.66-.37,5.37,5.37,0,0,0-1.46,2.79,6.68,6.68,0,0,0,.92,2.95.65.65,0,0,1,.07.51.64.64,0,0,1-.32.4,4.73,4.73,0,0,0-2.07,3c-.58,2.31-.5,9.78-.5,9.86a.65.65,0,0,1-.65.66H7.12Zm34-.65h.39a4.15,4.15,0,0,0,4.14-4.14V28.91a4.15,4.15,0,0,0-4.14-4.14h-.39ZM5.44,24.77A4.15,4.15,0,0,0,1.3,28.91v2.49a4.15,4.15,0,0,0,4.14,4.14h.39V24.77Zm33.88,5.54h.5v-13a6.57,6.57,0,0,0-2.41-2.76,8.22,8.22,0,0,1-.82,2.85,6.24,6.24,0,0,1,2.19,3.42c.52,2.07.55,7.61.54,9.53Zm-32.2,0h.5c0-1.92,0-7.46.54-9.53a6.24,6.24,0,0,1,2.18-3.42,7.41,7.41,0,0,1-.82-3.08,6.39,6.39,0,0,1,1.76-3.62,6.1,6.1,0,0,1-1.21-1.77,8.81,8.81,0,0,0-3,6.56ZM31.56,11.54c.88,0,6.11.17,8.75,4,.09-.35.18-.76.26-1.21A15.5,15.5,0,0,0,33,10.36a40.08,40.08,0,0,0-9.5-.13,53.91,53.91,0,0,1-7.16.14A10.26,10.26,0,0,1,11.63,9a4.69,4.69,0,0,0,1.9,1.67,10.29,10.29,0,0,0,4.42.85H31.56ZM28.63,8.72a24.79,24.79,0,0,1,4.58.37,16.68,16.68,0,0,1,7.53,3.62,11,11,0,0,0-.07-1.79c-1.81-1.81-5-3.07-9.29-3.65a29.42,29.42,0,0,0-7.58.41,32,32,0,0,1-8.17.43c-2.84-.38-4.15-1.4-4.74-2.32a2,2,0,0,0-.06.49c0,.06,0,.12,0,.18.21.41,1.41,2.3,5.58,2.62a52.33,52.33,0,0,0,7-.14c1.74-.11,3.51-.22,5.24-.22Zm.87-2.87A15.22,15.22,0,0,1,31.55,6a20.5,20.5,0,0,1,8.62,2.86q-.11-.31-.25-.61A10.65,10.65,0,0,0,39.26,7l0,0C37.09,3.27,29.59.9,21.41,1.36a23.16,23.16,0,0,0-6,1.09h0a10.59,10.59,0,0,0-2.56,1.16l-.34.2-.56.4-.22.2c.08.51.62,1.95,4.09,2.4a31.06,31.06,0,0,0,7.83-.43,44.93,44.93,0,0,1,5.88-.54ZM21.24,43.07c-1.22,0-2-.08-2.16-.09a.65.65,0,1,1,.13-1.29c.08,0,8.43.8,12.59-3a2.29,2.29,0,0,0-.62-.36.65.65,0,1,1,.47-1.21,3.55,3.55,0,0,1,2.24,3v.15a.65.65,0,0,1-1.29.13l0-.15a2.44,2.44,0,0,0-.08-.42c-3.25,2.84-8.39,3.28-11.29,3.28ZM17.66,32.22a4,4,0,1,1,4-4,4,4,0,0,1-4,4Zm0-6.6a2.65,2.65,0,1,0,2.65,2.65,2.66,2.66,0,0,0-2.65-2.65Zm16,3.51a.65.65,0,0,1-.6-.41,2.84,2.84,0,0,0-2.81-1.45,3.05,3.05,0,0,0-2.92,1.45.65.65,0,0,1-.86.32.65.65,0,0,1-.33-.85A4.29,4.29,0,0,1,30.28,26a4.07,4.07,0,0,1,4,2.28.65.65,0,0,1-.6.88Zm-16-.14a.65.65,0,0,1-.65-.65v-.06a.65.65,0,1,1,1.3,0v.06a.65.65,0,0,1-.65.65Zm15-6.43a.64.64,0,0,1-.26-.05l-4.81-2.09a.65.65,0,0,1,.52-1.19l4.81,2.09a.65.65,0,0,1-.26,1.24Zm-18.28-.74A.65.65,0,0,1,14,20.6l4.5-2.69A.65.65,0,1,1,19.18,19l-4.5,2.69a.65.65,0,0,1-.33.09Zm0,0"/></g></g></g></svg>