<svg xmlns="http://www.w3.org/2000/svg" xmlns:xlink="http://www.w3.org/1999/xlink" viewBox="0 0 47.95 55.88"><defs><style>.cls-1{fill:none;}.cls-2{clip-path:url(#clip-path);}</style><clipPath id="clip-path"><rect class="cls-1" width="47.97" height="55.92"/></clipPath></defs><title>solution</title><g id="Layer_2" data-name="Layer 2"><g id="Layer_1-2" data-name="Layer 1"><g class="cls-2"><path d="M24,55.88a18,18,0,0,1-18-18v-.26H5.55A5.56,5.56,0,0,1,0,32.05V29.51A5.56,5.56,0,0,1,5.55,24h.39V15.77A10.32,10.32,0,0,1,9.85,7.71,6.38,6.38,0,0,1,9.72,6.4a4.16,4.16,0,0,1,1.63-3.14l0,0L12,2.79l.07,0,.33-.19a12.11,12.11,0,0,1,2.92-1.32A25,25,0,0,1,21.77.06c9-.5,17,2.13,19.44,6.41h0l.2.36c.19.35.34.62.51,1,2,4.34.38,8.89,0,9.76V24h.43a5.56,5.56,0,0,1,5.55,5.55v2.54a5.56,5.56,0,0,1-5.55,5.55H42v.26a18,18,0,0,1-18,18ZM7.27,36.94v.92a16.68,16.68,0,1,0,33.37,0V32.26H39.47a.66.66,0,0,1-.66-.67c0-.08.08-7.7-.51-10.06a4.84,4.84,0,0,0-2.12-3,.67.67,0,0,1-.32-.41.66.66,0,0,1,.07-.51,7.47,7.47,0,0,0,.95-3c0-.23-1-.81-2.26-1.17a12.46,12.46,0,0,0-2.5-.27H18.33a11.76,11.76,0,0,1-5.11-1,6,6,0,0,1-.68-.38A5.47,5.47,0,0,0,11,14.58a6.83,6.83,0,0,0,.94,3,.66.66,0,0,1-.25.93,4.83,4.83,0,0,0-2.12,3c-.59,2.36-.51,10-.51,10.06a.66.66,0,0,1-.19.47.66.66,0,0,1-.47.2H7.27ZM42,36.28h.39a4.23,4.23,0,0,0,4.23-4.23V29.51a4.23,4.23,0,0,0-4.23-4.23H42Zm-36.45-11a4.23,4.23,0,0,0-4.23,4.23v2.54a4.23,4.23,0,0,0,4.23,4.23h.39v-11Zm34.58,5.65h.51V17.63a6.69,6.69,0,0,0-2.46-2.82,8.4,8.4,0,0,1-.83,2.9,6.37,6.37,0,0,1,2.23,3.5c.53,2.12.56,7.77.55,9.72Zm-32.86,0h.51c0-2,0-7.61.55-9.72a6.38,6.38,0,0,1,2.22-3.49,7.57,7.57,0,0,1-.84-3.14,6.52,6.52,0,0,1,1.79-3.7,6.24,6.24,0,0,1-1.23-1.81,9,9,0,0,0-3,6.7ZM32.21,11.77c.9,0,6.24.17,8.93,4.05.09-.36.19-.77.27-1.23a15.82,15.82,0,0,0-7.76-4,40.92,40.92,0,0,0-9.7-.13,55.23,55.23,0,0,1-7.31.14A10.47,10.47,0,0,1,11.87,9.2a4.78,4.78,0,0,0,1.94,1.71,10.5,10.5,0,0,0,4.51.87H32.21Zm-3-2.88a25.18,25.18,0,0,1,4.68.38A17,17,0,0,1,41.58,13a11.17,11.17,0,0,0-.07-1.83C39.66,9.29,36.39,8,32,7.4a30.15,30.15,0,0,0-7.74.42,32.54,32.54,0,0,1-8.34.43C13,7.88,11.71,6.83,11.11,5.9a2.07,2.07,0,0,0-.06.5c0,.06,0,.12,0,.19.21.42,1.44,2.35,5.7,2.68a53.23,53.23,0,0,0,7.13-.14c1.78-.11,3.59-.22,5.35-.22ZM30.11,6a15.58,15.58,0,0,1,2.09.13A20.92,20.92,0,0,1,41,9q-.12-.31-.26-.62c-.15-.33-.29-.58-.47-.91l-.2-.36h0C37.88,3.33,30.22.91,21.85,1.38A23.64,23.64,0,0,0,15.71,2.5h0a10.83,10.83,0,0,0-2.6,1.18l-.34.2-.57.41-.22.2c.08.52.64,2,4.18,2.45a31.68,31.68,0,0,0,8-.43,45.67,45.67,0,0,1,6-.55Zm-6,44.12c-5.58,0-11.58-2.93-11.58-9.36a.66.66,0,0,1,.66-.66H35a.66.66,0,0,1,.66.66c0,6.43-6,9.36-11.58,9.36Zm-8.55-4.65c2,2.26,5.34,3.33,8.55,3.33s6.58-1.06,8.55-3.33Zm-.91-1.32H33.56a7,7,0,0,0,.77-2.73H13.87a7,7,0,0,0,.77,2.73Zm.06-11.57a.66.66,0,0,1-.27-1.27l4.48-2-4.48-2A.66.66,0,0,1,15,26.13l5.87,2.57a.66.66,0,0,1,0,1.21L15,32.48a.65.65,0,0,1-.26.06Zm18.79,0a.66.66,0,0,1-.27-.06l-5.87-2.57a.66.66,0,0,1,0-1.21l5.87-2.57a.66.66,0,1,1,.53,1.21l-4.48,2,4.48,2a.66.66,0,0,1-.27,1.27Zm0,0"/></g></g></g></svg>