<svg xmlns="http://www.w3.org/2000/svg" viewBox="0 0 30.5 37.54"><defs><style>.cls-1{fill-rule:evenodd;}</style></defs><title>trash</title><g id="Layer_2" data-name="Layer 2"><g id="Layer_1-2" data-name="Layer 1"><path class="cls-1" d="M21.11,32.84a1.17,1.17,0,0,0,1.17-1.17V17.6a1.17,1.17,0,1,0-2.34,0V31.67a1.16,1.16,0,0,0,1.17,1.17Zm7-28.15h-7V2.35A2.34,2.34,0,0,0,18.77,0h-7A2.35,2.35,0,0,0,9.38,2.35V4.69h-7A2.34,2.34,0,0,0,0,7V9.38a2.35,2.35,0,0,0,2.35,2.35V32.84A4.69,4.69,0,0,0,7,37.54H23.46a4.69,4.69,0,0,0,4.69-4.7V11.73A2.35,2.35,0,0,0,30.5,9.38V7a2.34,2.34,0,0,0-2.35-2.35ZM11.73,3.52A1.17,1.17,0,0,1,12.9,2.35H17.6a1.17,1.17,0,0,1,1.17,1.17V4.69h-7ZM25.81,32.84a2.35,2.35,0,0,1-2.35,2.35H7a2.35,2.35,0,0,1-2.35-2.35V11.73H25.81ZM27,9.38H3.52A1.17,1.17,0,0,1,3.52,7H27a1.17,1.17,0,1,1,0,2.34ZM9.38,32.84a1.17,1.17,0,0,0,1.17-1.17V17.6a1.17,1.17,0,1,0-2.34,0V31.67a1.16,1.16,0,0,0,1.17,1.17Zm5.87,0a1.17,1.17,0,0,0,1.17-1.17V17.6a1.17,1.17,0,1,0-2.34,0V31.67a1.16,1.16,0,0,0,1.17,1.17Zm0,0"/></g></g></svg>