<svg xmlns="http://www.w3.org/2000/svg" xmlns:xlink="http://www.w3.org/1999/xlink" viewBox="0 0 48.66 56.71"><defs><style>.cls-1{fill:none;}.cls-2{clip-path:url(#clip-path);}</style><clipPath id="clip-path"><rect class="cls-1" width="48.68" height="56.75"/></clipPath></defs><title>value icon</title><g id="Layer_2" data-name="Layer 2"><g id="Layer_1-2" data-name="Layer 1"><g class="cls-2"><path d="M24.31,56.71A18.3,18.3,0,0,1,6,38.43v-.26h-.4A5.64,5.64,0,0,1,0,32.53V30a5.64,5.64,0,0,1,5.64-5.64H6V16a10.48,10.48,0,0,1,4-8.18A6.48,6.48,0,0,1,9.86,6.5a4.22,4.22,0,0,1,1.65-3.19l0,0,.63-.45.07,0,.33-.2a12.31,12.31,0,0,1,3-1.34A25.39,25.39,0,0,1,22.1.06C31.2-.45,39.31,2.23,41.81,6.58h0A12.28,12.28,0,0,1,42.56,8c2,4.4.38,9,0,9.9v6.46H43A5.64,5.64,0,0,1,48.66,30v2.58A5.64,5.64,0,0,1,43,38.17h-.44v.27A18.3,18.3,0,0,1,24.31,56.71ZM7.38,37.5v.94a16.93,16.93,0,1,0,33.87,0V32.74H40.06a.67.67,0,0,1-.67-.68c0-.08.08-7.81-.52-10.21a4.9,4.9,0,0,0-2.15-3.06.68.68,0,0,1-.26-.93,7.6,7.6,0,0,0,1-3.08c0-.23-1-.8-2.23-1.17a12.8,12.8,0,0,0-2.6-.3h-14a11.93,11.93,0,0,1-5.19-1,6,6,0,0,1-.69-.39,5.56,5.56,0,0,0-1.52,2.9,6.93,6.93,0,0,0,1,3.05.67.67,0,0,1-.26.95,4.9,4.9,0,0,0-2.15,3.06c-.6,2.39-.52,10.13-.52,10.21a.67.67,0,0,1-.67.68H7.38Zm35.25-.67H43a4.3,4.3,0,0,0,4.29-4.29V30A4.3,4.3,0,0,0,43,25.66h-.4Zm-37-11.17A4.3,4.3,0,0,0,1.34,30v2.58a4.3,4.3,0,0,0,4.29,4.29H6V25.66Zm35.1,5.74h.51V17.89A6.78,6.78,0,0,0,38.75,15,8.54,8.54,0,0,1,37.91,18a6.45,6.45,0,0,1,2.26,3.55c.54,2.15.57,7.88.56,9.87Zm-33.35,0h.51c0-2,0-7.72.56-9.87A6.47,6.47,0,0,1,10.71,18a7.68,7.68,0,0,1-.85-3.19A6.61,6.61,0,0,1,11.68,11a6.32,6.32,0,0,1-1.25-1.83A9.13,9.13,0,0,0,7.38,16ZM32.69,11.95c.91,0,6.33.17,9.07,4.11.09-.36.19-.78.27-1.25a16.05,16.05,0,0,0-7.87-4.09,41.53,41.53,0,0,0-9.84-.13,56,56,0,0,1-7.42.14,10.64,10.64,0,0,1-4.84-1.4,4.86,4.86,0,0,0,2,1.73A10.66,10.66,0,0,0,18.6,12H32.69ZM29.66,9a25.56,25.56,0,0,1,4.75.38,17.23,17.23,0,0,1,7.79,3.75,11.47,11.47,0,0,0-.07-1.86c-1.87-1.87-5.19-3.18-9.62-3.78a30.53,30.53,0,0,0-7.85.43,33.1,33.1,0,0,1-8.46.44C13.24,8,11.89,6.94,11.27,6a2.17,2.17,0,0,0-.06.51c0,.06,0,.13,0,.19.22.42,1.46,2.39,5.78,2.72a54.25,54.25,0,0,0,7.23-.15C26,9.14,27.87,9,29.66,9Zm.9-3a15.81,15.81,0,0,1,2.12.13,21.2,21.2,0,0,1,8.92,3q-.12-.32-.26-.63a11.27,11.27,0,0,0-.68-1.24l0,0C38.42,3.39,30.65.93,22.17,1.4a24,24,0,0,0-6.23,1.13h0a11,11,0,0,0-2.64,1.2l-.35.2-.58.41-.23.2c.08.53.65,2,4.24,2.49a32.11,32.11,0,0,0,8.11-.44,46.35,46.35,0,0,1,6.09-.56ZM24.31,50.73A11.57,11.57,0,0,1,12.76,39.18a.67.67,0,0,1,.67-.67H35.19a.67.67,0,0,1,.67.67,11.48,11.48,0,0,1-1.38,5.47.61.61,0,0,1-.07.13,11.56,11.56,0,0,1-10.1,5.95ZM16,45.06a10.2,10.2,0,0,0,16.67,0Zm-.8-1.34H33.45a10.14,10.14,0,0,0,1-3.87H14.13a10.12,10.12,0,0,0,1,3.87Zm19.7-11.51a.67.67,0,0,1-.31-.08l-2.94-1.55-2.94,1.55a.67.67,0,0,1-1-.71l.56-3.27-2.38-2.32a.67.67,0,0,1,.37-1.15l3.29-.48,1.47-3a.67.67,0,0,1,1.2,0l1.47,3,3.29.48a.67.67,0,0,1,.37,1.15L35,28.15l.56,3.27a.67.67,0,0,1-.66.78Zm-3.25-3.05a.68.68,0,0,1,.31.08l2,1.08L33.59,28a.67.67,0,0,1,.19-.59l1.66-1.61-2.29-.33a.67.67,0,0,1-.51-.37l-1-2.08-1,2.08a.67.67,0,0,1-.51.37l-2.29.33,1.66,1.61a.67.67,0,0,1,.19.59l-.39,2.28,2-1.08a.66.66,0,0,1,.31-.08ZM20.23,32.21a.68.68,0,0,1-.31-.08L17,30.59,14,32.14a.67.67,0,0,1-1-.71l.56-3.27-2.38-2.32a.67.67,0,0,1,.37-1.15l3.29-.48,1.47-3a.67.67,0,0,1,1.2,0l1.47,3,3.29.48a.67.67,0,0,1,.37,1.15l-2.38,2.32.56,3.27a.67.67,0,0,1-.66.78ZM17,29.16a.67.67,0,0,1,.31.08l2,1.08L19,28a.67.67,0,0,1,.19-.59l1.66-1.61-2.29-.33a.67.67,0,0,1-.51-.37L17,23l-1,2.08a.67.67,0,0,1-.51.37l-2.29.33,1.66,1.61A.67.67,0,0,1,15,28l-.39,2.28,2-1.08a.66.66,0,0,1,.31-.08Zm0,0"/></g></g></g></svg>