<svg xmlns="http://www.w3.org/2000/svg" viewBox="0 0 378.43 131.66"><defs><style>.cls-1{fill:#fff;}</style></defs><title>elevetorly logo</title><g id="Layer_2" data-name="Layer 2"><g id="Layer_1-2" data-name="Layer 1"><path d="M320.65,0h5.68V121.1a5.23,5.23,0,0,0,1.34,3.8,5,5,0,0,0,3.76,1.38,11.3,11.3,0,0,0,2.17-.25,14.24,14.24,0,0,0,2.34-.67l1,4.59A18.66,18.66,0,0,1,333,131a22.69,22.69,0,0,1-4,.42,8.44,8.44,0,0,1-6.18-2.21,8.32,8.32,0,0,1-2.25-6.22Z"/><path d="M21.88,113.79a21.13,21.13,0,0,1-15.7-6.72,22.86,22.86,0,0,1-4.55-7.22A23.49,23.49,0,0,1,0,91.08a23,23,0,0,1,1.63-8.64A21.86,21.86,0,0,1,13.07,70.5a20.92,20.92,0,0,1,8.73-1.8,20.75,20.75,0,0,1,15.53,6.68,22.93,22.93,0,0,1,6,15.62q0,.67,0,1.34a4.31,4.31,0,0,1-.13.92H6a18.37,18.37,0,0,0,5.14,11.61,15.37,15.37,0,0,0,4.93,3.38,14.85,14.85,0,0,0,6,1.21,15.71,15.71,0,0,0,4.26-.58,16.85,16.85,0,0,0,3.84-1.59,13.44,13.44,0,0,0,3.13-2.46,11,11,0,0,0,2.13-3.21l4.93,1.34a14.46,14.46,0,0,1-2.84,4.38,19.8,19.8,0,0,1-4.26,3.42A20.86,20.86,0,0,1,27.89,113,22.88,22.88,0,0,1,21.88,113.79Zm16-24.88a17.45,17.45,0,0,0-5.14-11.36,15.43,15.43,0,0,0-5-3.26,16,16,0,0,0-12,0,15.42,15.42,0,0,0-5,3.26,16,16,0,0,0-3.42,5,19,19,0,0,0-1.54,6.35Z"/><path d="M52.1,52h5.68v51.1a5.23,5.23,0,0,0,1.34,3.8,5,5,0,0,0,3.76,1.38A11.29,11.29,0,0,0,65,108a14.25,14.25,0,0,0,2.34-.67l1,4.59A18.68,18.68,0,0,1,64.5,113a22.69,22.69,0,0,1-4,.42,8.44,8.44,0,0,1-6.18-2.21A8.32,8.32,0,0,1,52.1,105Z"/><path d="M92.94,113.79a21.13,21.13,0,0,1-15.7-6.72,22.86,22.86,0,0,1-4.55-7.22,23.49,23.49,0,0,1-1.63-8.77,23,23,0,0,1,1.63-8.64A21.86,21.86,0,0,1,84.13,70.5a21.22,21.22,0,0,1,24.26,4.88,22.93,22.93,0,0,1,6,15.62q0,.67,0,1.34a4.31,4.31,0,0,1-.13.92H77.07a18.37,18.37,0,0,0,5.14,11.61,15.37,15.37,0,0,0,4.93,3.38,14.85,14.85,0,0,0,6,1.21,15.71,15.71,0,0,0,4.26-.58,16.85,16.85,0,0,0,3.84-1.59,13.44,13.44,0,0,0,3.13-2.46,11,11,0,0,0,2.13-3.21l4.93,1.34a14.46,14.46,0,0,1-2.84,4.38,19.8,19.8,0,0,1-4.26,3.42A20.86,20.86,0,0,1,98.95,113,22.88,22.88,0,0,1,92.94,113.79Zm16-24.88a17.45,17.45,0,0,0-5.14-11.36,15.43,15.43,0,0,0-5-3.26,16,16,0,0,0-12,0,15.42,15.42,0,0,0-5,3.26,16,16,0,0,0-3.42,5,19,19,0,0,0-1.54,6.35Z"/><path d="M134.77,113l-17.7-43.5H123l14.95,38.24,15-38.24h5.51L140.78,113Z"/><path d="M185,113.79a21.13,21.13,0,0,1-15.7-6.72,22.86,22.86,0,0,1-4.55-7.22,23.49,23.49,0,0,1-1.63-8.77,23,23,0,0,1,1.63-8.64A21.86,21.86,0,0,1,176.23,70.5a21.22,21.22,0,0,1,24.26,4.88,22.93,22.93,0,0,1,6,15.62q0,.67,0,1.34a4.35,4.35,0,0,1-.12.92H169.17a18.37,18.37,0,0,0,5.14,11.61,15.37,15.37,0,0,0,4.93,3.38,14.85,14.85,0,0,0,6,1.21,15.7,15.7,0,0,0,4.26-.58,16.81,16.81,0,0,0,3.84-1.59,13.41,13.41,0,0,0,3.13-2.46,10.94,10.94,0,0,0,2.13-3.21l4.93,1.34a14.45,14.45,0,0,1-2.84,4.38,19.79,19.79,0,0,1-4.26,3.42,20.87,20.87,0,0,1-5.34,2.25A22.89,22.89,0,0,1,185,113.79Zm16-24.88a17.47,17.47,0,0,0-5.13-11.36,15.43,15.43,0,0,0-5-3.26,16,16,0,0,0-12,0,15.42,15.42,0,0,0-5,3.26,16,16,0,0,0-3.42,5A19,19,0,0,0,169,88.91Z"/><path d="M235.64,110.87q-.5.25-1.46.67t-2.21.83a25.52,25.52,0,0,1-2.84.75,16.25,16.25,0,0,1-3.34.33,12.13,12.13,0,0,1-3.51-.5,8.16,8.16,0,0,1-2.92-1.54,7.6,7.6,0,0,1-2-2.63,8.49,8.49,0,0,1-.75-3.67V74h-6V69.45h6V54.76h5.68v14.7h10V74h-10v29.56a4.56,4.56,0,0,0,1.67,3.55,5.81,5.81,0,0,0,3.59,1.13,10.66,10.66,0,0,0,4.26-.79,18.8,18.8,0,0,0,2.34-1.13Z"/><path d="M260.19,113.79a20.91,20.91,0,0,1-8.73-1.8,21.19,21.19,0,0,1-6.85-4.88,22.14,22.14,0,0,1-4.47-7.18,23.58,23.58,0,0,1-1.59-8.6,23.29,23.29,0,0,1,1.63-8.68,22.79,22.79,0,0,1,4.51-7.18,21.78,21.78,0,0,1,6.85-4.93,21.25,21.25,0,0,1,17.29,0,21.78,21.78,0,0,1,6.85,4.93,22.78,22.78,0,0,1,4.51,7.18,23.75,23.75,0,0,1,0,17.29,22.74,22.74,0,0,1-4.51,7.18,21.2,21.2,0,0,1-6.85,4.88A20.72,20.72,0,0,1,260.19,113.79ZM244.41,91.41a18.7,18.7,0,0,0,1.21,6.81,17.81,17.81,0,0,0,3.34,5.51,15.28,15.28,0,0,0,5,3.72,14.4,14.4,0,0,0,6.14,1.34,14,14,0,0,0,6.14-1.38,16.31,16.31,0,0,0,5.05-3.76,17.89,17.89,0,0,0,3.42-5.55,19.22,19.22,0,0,0,0-13.65,17.8,17.8,0,0,0-3.42-5.59,16.48,16.48,0,0,0-5-3.76,13.78,13.78,0,0,0-6.1-1.38,14,14,0,0,0-6.14,1.38,15.53,15.53,0,0,0-5,3.8,18.93,18.93,0,0,0-4.63,12.53Z"/><path d="M312.8,74.46a17.87,17.87,0,0,0-10,3.17,16,16,0,0,0-6,8.27V113h-5.68V69.45h5.34V79.89a22.88,22.88,0,0,1,5.93-7.64,12.19,12.19,0,0,1,7.93-3h1.42a5.82,5.82,0,0,1,1.09.08Z"/><path d="M343.61,126.4c.28.05.56.1.83.13s.56,0,.83,0a10.58,10.58,0,0,0,1.8-.17,7.79,7.79,0,0,0,1.38-.33,2.42,2.42,0,0,0,.88-.71,11.19,11.19,0,0,0,1.17-1.92q.71-1.38,1.8-3.84T355,113l-19-43.5H342l16.12,38.24L373,69.45h5.43L355.8,125.57a10,10,0,0,1-3.38,4.59,10.24,10.24,0,0,1-6,1.5,14.55,14.55,0,0,1-2.84-.25Z"/><rect class="cls-1" x="308.43" y="77.78" width="31" height="26"/><rect x="316.61" y="79.95" width="12.82" height="21.67"/></g></g></svg>