<svg xmlns="http://www.w3.org/2000/svg" viewBox="0 0 80 57.86"><defs><style>.cls-1{stroke:#000;stroke-miterlimit:10;stroke-width:2px;}</style></defs><title>question info</title><g id="Layer_2" data-name="Layer 2"><g id="Layer_1-2" data-name="Layer 1"><path class="cls-1" d="M73.87,17.93h-27a23.36,23.36,0,1,0-27.4,29.28L25.19,53a2.52,2.52,0,0,0,4.31-1.78v-4a23.43,23.43,0,0,0,2.77-.8v.16a5.14,5.14,0,0,0,5.13,5.13H46l4.59,4.59a2.14,2.14,0,0,0,3.65-1.51V51.64H73.87A5.14,5.14,0,0,0,79,46.51V23.06A5.14,5.14,0,0,0,73.87,17.93Zm-45.81,27a1.22,1.22,0,0,0-1,1.2v5a.08.08,0,0,1-.14.06l-6-6a1.22,1.22,0,0,0-.63-.33A20.93,20.93,0,0,1,22,3.58a22,22,0,0,1,2.42-.13A20.69,20.69,0,0,1,38.32,8.78,20.91,20.91,0,0,1,28.06,44.95Zm48.5,1.56a2.69,2.69,0,0,1-2.69,2.69H53a1.22,1.22,0,0,0-1.22,1.22V54l-4.43-4.43a1.22,1.22,0,0,0-.86-.36H37.39a2.69,2.69,0,0,1-2.69-2.69V45.32A23.33,23.33,0,0,0,47.39,20.37H73.87a2.69,2.69,0,0,1,2.69,2.69Z"/><path class="cls-1" d="M67.79,27.41,55.63,39.57,50,33.92a1.22,1.22,0,0,0-1.73,1.73l6.51,6.51a1.22,1.22,0,0,0,1.73,0l13-13a1.22,1.22,0,1,0-1.73-1.73Z"/><path class="cls-1" d="M24.37,33.57h0a1.22,1.22,0,0,0-1.22,1.22h0A1.22,1.22,0,0,0,24.37,36h0a1.22,1.22,0,0,0,1.22-1.22h0A1.22,1.22,0,0,0,24.37,33.57Z"/><path class="cls-1" d="M24.37,12.73a7.74,7.74,0,0,0-7.73,7.73,1.22,1.22,0,1,0,2.44,0,5.3,5.3,0,0,1,5.29-5.29,5.39,5.39,0,0,1,5.29,5.29,5.33,5.33,0,0,1-3.77,5.07,3.81,3.81,0,0,0-2.74,3.66v.39a1.22,1.22,0,1,0,2.44,0v-.39a1.38,1.38,0,0,1,1-1.32,7.78,7.78,0,0,0,5.51-7.41,7.83,7.83,0,0,0-7.74-7.74Z"/></g></g></svg>