<svg xmlns="http://www.w3.org/2000/svg" viewBox="0 0 484.41 405.37"><title>thanks</title><g id="Layer_2" data-name="Layer 2"><g id="Layer_1-2" data-name="Layer 1"><path d="M481.07,170.31c-6.25,2.5-17,6.25-17,6.25s18.27,36.48-12.5,52.5c-30.25,15.75-60-38.25-63.75-49.5,27-4.5,42.5-25,34.5-36s-26-8-57,33c12.5-32,42.75-75,51.75-85.75-9.25-5.5-15.5-11.5-24.75,2.25-7.12,10.58-21.93,37.08-33.51,62.68-11.46,17.81-27.36,37.87-30.16,36.4-3.5-1.83,4.83-14.33,10.33-24.86s7.17-21-3.83-25.64S304,160.81,304,160.81s4-10.83-6.83-15.6-28,15.6-43.67,35.6-20.67,12.33-13.33-.5c8.82-15.44,22.17-26.67,22.17-26.67-6.23-6-11.61-5.21-16.36-1.89-.83-4.27-4.81-9.68-21.14-4.27a55.85,55.85,0,0,0-35,34.32c-9.36,8.64-20.37,14.83-23.51,13.27-4.5-2.25,14-29.25,18.5-36.5s-2.25-17-12.75-12c-13.55,6.45-31.75,23.75-31.75,23.75s8.45-20.12,36.64-63.16c47.33,5.33,57.69-16.84,57.69-16.84a7.88,7.88,0,0,1-1.83-1.75c-8.89,6.74-24.93,7.22-46.74,5,59-85.66,114.25-97.8,155.74-76,42.25,22.25,24.25,90-18.25,93.5-44.42,3.66-58.5-35.75-58.5-35.75l-14.5,9.5s12.2,21.95,35.75,30c57.75,19.75,86.25-22.5,91.5-47.25C383,43,363.32-6.94,295.57.81c-64.18,7.34-107,63.81-125.2,90.78-12.62-1.73-26.69-4-42.05-6.28-26.84-4-59-11-84.5-4.5-23.65,6-41,24.5-43.25,43.25-6.68,55.7,47.75,48.75,47.75,48.75v-16c-49.75,4.75-45.42-45.81-22.5-59C44.57,87,89.32,92.43,135.74,100.24a113.27,113.27,0,0,0-26.17,34.07c-11,22.75-30.62,65.69-49,99.75-15.73,29.15-45,37.6-51,23.75-6.24-14.53,13-20.5,13-20.5a139.4,139.4,0,0,0-9-11.25c-25.25,17.25-14.5,56.57,27,40.5,43.25-16.75,67-85.25,82.5-122.25,9.22-22,17.91-35.17,23.44-42.23,5.14.89,10.27,1.8,15.37,2.71-16.17,26.24-37.8,66.8-41.81,77.21-4.5,11.69-5.75,13.56,6.75,23.29,9.25-14.77,18-28.48,40.25-46.48-12,16.5-24.75,36.75-12.75,46.48,9,7.28,25.79-4.29,33.69-10.59,1.85,10.81,15.31,18.6,34.61-4.7-.61,6,1,11.3,6.86,14.48,16.83,9.17,37.67-26.83,53-43.5,6.82-7.41,11.67-8.17,8.5-1.17-3.45,7.62-13.75,25.86-15.5,28.67-6.25,10.05-1.5,12.83,7.5,15.67,3.5-8.5,22-32.17,30.83-41s17.17-14.33,11.83-4.67-21.83,42.33-9.33,46.81c10.14,3.63,21.15-5.66,29.6-15.82-4.12,16.06,1.64,17.13,9.15,22.34,0,0,4.42-15.91,17.7-34.13,7.86,32.43,33.36,62.4,65,63.13,32.5.75,55.5-32.5,43.25-70.5m-253.81,5.44c-6.61,8.06-17.32,19.79-21.77,17.23-2.69-1.55,2.61-17.24,11.49-26.33,10.21-10.46,23.25-15.05,25.48-12-7.14,5.79-11.91,14.48-15.2,21.07m162.06-16.69c29-26.77,36.72,6.78-14.33,15.67a127.34,127.34,0,0,1,14.33-15.67"/><path d="M388.49,357.31C336.9,396.24,241.1,350.54,173,329c27.31-44.57,51.56-96.46,51.56-96.46s-11.08.75-16.5,1c-4.42,11.92-49.26,68.52-50.25,64.5-4.17-16.92,24-68,24-68s-10.68-.44-14.67,2.58c-9,6.85-28.33,51-24,67.33s19,8,39.67-15c-3.63,5.51-12.72,21.54-24,39.76-32.47-9.43-67.66-17.25-94.49-14.43-28.24,3-47.24,18-42.17,43.67,12.31,62.34,70.67,62,108.33,30.67,10.31-8.58,22-23.87,33.62-41.54,43.42,13.1,89.42,29.14,124.39,38.88,73,20.33,103-21.67,103-21.67a20.14,20.14,0,0,1-3-3M104.82,393c-33.31,20-58.67-11-68.67-29S25.5,320.54,64.82,321.64c21.82.61,52.22,7.76,85,17.24-15,23.08-32,46.26-45,54.09"/><path d="M278.82,244.06v-5.37s-25.12-13.62-53.25,13.5c-28.57,27.55-20.75,67.5,7.25,62.25,15.27-2.86,28.23-16.22,36.5-29.75a31.49,31.49,0,0,0,9.78-.69c-3.34,12.09-1.41,22.1,4.22,25.82,15.13,10,43.13-30.12,43.13-30.12s-15.12,39.75,10.63,47.5c26.59,8,53.12-33,53.12-33s-13.5-4-16.37-5.37c0,.38-13.79,24.25-28.5,28.9-15.37,4.85-18.12-12.27-8.12-31.9s26.38-40,26.38-40l-20.25-2S314.19,285,304.94,292.93c-20.59,17.63-18,4-11.5-9.5,7.09-14.73,28.75-41.63,28.75-41.63H302.32c-4.79,5-13.22,18-19.18,31.42a20.66,20.66,0,0,1-9,2.52c3.7-8,5.46-15.23,4.71-19.32-2.25-12.25-19.62-15.88-28.25,6.25-2.8,7.19-1,12.47,2.9,16.07-8.59,12.67-20.29,26.22-29.9,22.81-11.25-4,17-69.38,55.25-57.5"/></g></g></svg>