<svg xmlns="http://www.w3.org/2000/svg" xmlns:xlink="http://www.w3.org/1999/xlink" viewBox="0 0 57.03 56.95"><defs><style>.cls-1{fill:none;}.cls-2{clip-path:url(#clip-path);}</style><clipPath id="clip-path" transform="translate(0 -0.03)"><rect class="cls-1" width="57.12" height="57.12"/></clipPath></defs><title>edit icon</title><g id="Layer_2" data-name="Layer 2"><g id="Layer_1-2" data-name="Layer 1"><g class="cls-2"><path d="M26.74,16.9l-5.52,5.52c-2,2-4.08,4.07-6.11,6.13a3.8,3.8,0,0,0-1,1.78c-.73,3.36-1.44,6.72-2.15,10.08l-.4,1.86a2.65,2.65,0,0,0,.67,2.43,2.59,2.59,0,0,0,1.84.74,3.39,3.39,0,0,0,.59-.06l2-.43c3.26-.69,6.52-1.38,9.78-2.06a3.8,3.8,0,0,0,1.94-1Q42.17,28.13,55.89,14.43A3.85,3.85,0,0,0,57,12a1.62,1.62,0,0,0,0-.48c-.06-.23-.1-.48-.16-.71a10.27,10.27,0,0,0-.55-1.92A15.17,15.17,0,0,0,47.85.59,9.33,9.33,0,0,0,45.52.08l-.2,0A3.27,3.27,0,0,0,42.5,1.12Q34.65,9,26.74,16.9Zm18.2-14H45l.2,0a6.14,6.14,0,0,1,1.61.33A12.42,12.42,0,0,1,53.7,10a7.26,7.26,0,0,1,.37,1.35c0,.19.08.37.12.56a.88.88,0,0,1-.29.5Q40.17,26.08,26.46,39.81a.92.92,0,0,1-.5.27l-9.79,2.06-1.72.36L14.77,41c.71-3.35,1.42-6.71,2.14-10.06a1,1,0,0,1,.22-.38q3-3.07,6.08-6.11l5.52-5.52Q36.64,11,44.54,3.08c.22-.19.33-.22.41-.22Zm0,0" transform="translate(0 -0.03)"/></g><path d="M4.52,12.71H24.83a1.43,1.43,0,0,0,0-2.86H4.52A4.53,4.53,0,0,0,0,14.38V52.46A4.53,4.53,0,0,0,4.52,57H42.59a4.53,4.53,0,0,0,4.52-4.52V33a1.43,1.43,0,0,0-2.86,0V52.46a1.68,1.68,0,0,1-1.67,1.67H4.52a1.68,1.68,0,0,1-1.67-1.67V14.39a1.68,1.68,0,0,1,1.67-1.67Zm0,0" transform="translate(0 -0.03)"/></g></g></svg>