<svg xmlns="http://www.w3.org/2000/svg" viewBox="0 0 48.59 56.62"><title>name icon</title><g id="Layer_2" data-name="Layer 2"><g id="Layer_1-2" data-name="Layer 1"><path d="M24.28,56.62A18.27,18.27,0,0,1,6,38.37v-.26h-.4A5.63,5.63,0,0,1,0,32.48V29.9a5.63,5.63,0,0,1,5.63-5.63H6V16a10.46,10.46,0,0,1,4-8.17,6.56,6.56,0,0,1-.13-1.33A4.21,4.21,0,0,1,11.5,3.3l0,0,.63-.45.07,0,.33-.2a12.22,12.22,0,0,1,3-1.34A25.35,25.35,0,0,1,22.07.06c9.09-.51,17.18,2.17,19.68,6.51a12.32,12.32,0,0,1,.75,1.37c2,4.4.38,9,0,9.89v6.45H43a5.63,5.63,0,0,1,5.63,5.63v2.58A5.63,5.63,0,0,1,43,38.11h-.43v.26A18.27,18.27,0,0,1,24.28,56.62ZM7.37,37.44v.94a16.91,16.91,0,1,0,33.82,0V32.69H40a.66.66,0,0,1-.48-.2.67.67,0,0,1-.19-.48c0-.08.08-7.8-.52-10.19a4.9,4.9,0,0,0-2.15-3.06.67.67,0,0,1-.26-.93,7.55,7.55,0,0,0,1-3.07c0-.24-1-.82-2.29-1.18a12.39,12.39,0,0,0-2.53-.28h-14a11.91,11.91,0,0,1-5.18-1,5.93,5.93,0,0,1-.69-.39,5.56,5.56,0,0,0-1.52,2.89,6.93,6.93,0,0,0,1,3,.67.67,0,0,1-.26.94,4.9,4.9,0,0,0-2.15,3.06c-.6,2.39-.52,10.11-.52,10.19a.67.67,0,0,1-.67.68H7.37Zm35.19-.67H43a4.29,4.29,0,0,0,4.29-4.29V29.9A4.29,4.29,0,0,0,43,25.62h-.4ZM5.63,25.62A4.29,4.29,0,0,0,1.34,29.9v2.58a4.29,4.29,0,0,0,4.29,4.29H6V25.62Zm35,5.73h.51V17.86A6.78,6.78,0,0,0,38.69,15,8.51,8.51,0,0,1,37.85,18a6.43,6.43,0,0,1,2.26,3.54c.54,2.14.57,7.87.56,9.85Zm-33.3,0h.51c0-2,0-7.71.56-9.85A6.46,6.46,0,0,1,10.7,18a7.65,7.65,0,0,1-.85-3.18A6.6,6.6,0,0,1,11.67,11,6.31,6.31,0,0,1,10.42,9.2,9.11,9.11,0,0,0,7.37,16ZM32.64,11.93c.91,0,6.32.17,9.05,4.11.09-.36.19-.78.27-1.25a16,16,0,0,0-7.86-4.08,41.46,41.46,0,0,0-9.83-.13,55.76,55.76,0,0,1-7.41.14A10.59,10.59,0,0,1,12,9.32a4.85,4.85,0,0,0,2,1.73,10.64,10.64,0,0,0,4.57.88H32.64ZM29.61,9a25.61,25.61,0,0,1,4.74.38,17.22,17.22,0,0,1,7.78,3.74,11.32,11.32,0,0,0-.07-1.85c-1.87-1.87-5.19-3.18-9.61-3.78a30.46,30.46,0,0,0-7.84.43,33.05,33.05,0,0,1-8.45.44C13.22,8,11.87,6.92,11.26,6a2.1,2.1,0,0,0-.07.51c0,.06,0,.13,0,.19.22.42,1.46,2.38,5.77,2.71a54.11,54.11,0,0,0,7.22-.14C26,9.13,27.83,9,29.61,9Zm.9-3a15.73,15.73,0,0,1,2.12.13,21.19,21.19,0,0,1,8.91,3q-.12-.32-.26-.63a11.14,11.14,0,0,0-.68-1.24l0,0C38.36,3.38,30.61.93,22.14,1.4a24,24,0,0,0-6.22,1.13h0a11,11,0,0,0-2.65,1.2l-.35.2-.58.41-.23.2c.08.53.64,2,4.23,2.48a32.11,32.11,0,0,0,8.09-.44A46.46,46.46,0,0,1,30.51,6ZM24.29,49.62A12.08,12.08,0,0,1,12.23,37.56a.67.67,0,0,1,1.34,0,10.72,10.72,0,0,0,21.45,0,.67.67,0,0,1,1.34,0A12.08,12.08,0,0,1,24.29,49.62ZM13.72,29.9a.66.66,0,0,1-.24,0A.67.67,0,0,1,13.1,29a4.2,4.2,0,0,1,4.05-2.48A4.32,4.32,0,0,1,21.24,29a.67.67,0,0,1-1.24.51,3,3,0,0,0-2.85-1.64,2.89,2.89,0,0,0-2.8,1.62.67.67,0,0,1-.63.43ZM35,29.9a.67.67,0,0,1-.62-.42,3,3,0,0,0-2.86-1.64,2.9,2.9,0,0,0-2.8,1.62A.67.67,0,0,1,27.44,29a4.21,4.21,0,0,1,4.05-2.48A4.32,4.32,0,0,1,35.59,29a.67.67,0,0,1-.37.87.69.69,0,0,1-.25,0Zm-1.13-6.81a.67.67,0,0,1-.34-.1l-4.65-2.78a.67.67,0,0,1,.69-1.15l4.65,2.78a.67.67,0,0,1-.34,1.25Zm-19,0a.67.67,0,0,1-.34-1.25l4.65-2.78a.67.67,0,1,1,.69,1.15L15.2,23a.67.67,0,0,1-.34.09Zm0,0"/></g></g></svg>